/* XPM */
static char *attacked_XPM[] = {
/* columns rows colors chars-per-pixel */
"50 45 256 2",
"   c #71F21B1B0606",
".  c #7F7F20200202",
"X  c #7D7D27A81313",
"o  c #616125251B1B",
"O  c #6F6F2E2E2929",
"+  c #727243432F2F",
"@  c #747442423737",
"#  c #9741166C05B0",
"$  c #9A9A0D0D0303",
"%  c #989828A91292",
"&  c #933D30861515",
"*  c #884837B827E8",
"=  c #9C1C39BA21A2",
"-  c #AE471D840235",
";  c #A96919590687",
":  c #B2B219190081",
">  c #B6361D9E0889",
",  c #BD3D1C5C01C2",
"<  c #B96317170303",
"1  c #B3B31F1F1313",
"2  c #A8C825E60868",
"3  c #A42322221292",
"4  c #A9DC29F715AF",
"5  c #AFAF33330F0F",
"6  c #A54F38381A70",
"7  c #B5B5297F0B61",
"8  c #BC112B8103AE",
"9  c #B9B92C2C0DB8",
"0  c #B851238A0A0A",
"q  c #B86229291898",
"w  c #B9B931980C0C",
"e  c #BD6736E11919",
"r  c #A62535B622A3",
"t  c #B4B434342B2B",
"y  c #91914E4E3E3E",
"u  c #919149CA3B3B",
"i  c #AEAE40401D1D",
"p  c #ADAD52523D3D",
"a  c #BC3C434328A9",
"s  c #B53442423232",
"d  c #B0B049493030",
"f  c #9797575746C7",
"g  c #87874E4E4343",
"h  c #8B8B6A6A6363",
"j  c #B3B3484841C2",
"k  c #BDBD5D5D5151",
"l  c #ABAB59594D4D",
"z  c #AFAF6F6F5454",
"x  c #BDBD66664DCE",
"c  c #B67667E85494",
"v  c #CA4A11110000",
"b  c #C61B1C1C075D",
"n  c #D5D5179800C1",
"m  c #C64622220000",
"M  c #CA74237902AD",
"N  c #CD772DD80000",
"B  c #CA0929290B2B",
"V  c #CC762BD61313",
"C  c #CB4B24A51798",
"Z  c #CB8B32B30ACB",
"A  c #C7C730300303",
"S  c #C79C37621515",
"D  c #D53B24F20BD9",
"F  c #DD3221CC0157",
"G  c #D7D728680A8B",
"H  c #DB5B2E2E1313",
"J  c #D49433B40606",
"K  c #D680378D09B4",
"L  c #DC863B3B1369",
"P  c #DA68358B16C1",
"I  c #CB7539392177",
"U  c #C91E3D3D26D1",
"Y  c #D9D93E3E2222",
"T  c #E38D1E740303",
"R  c #E8E81D1D0000",
"E  c #E5E52DD80D0D",
"W  c #EDAD2A6A0BCC",
"Q  c #E84727C80363",
"!  c #ED172AAB1268",
"~  c #E38D292913BE",
"^  c #E58F33DE0258",
"/  c #E42331F20C8D",
"(  c #ED2C35B501C2",
")  c #EC963AE50A60",
"_  c #E9B639A008D6",
"`  c #EDED31CB1447",
"'  c #EB6B3E3E1818",
"]  c #E78738D917D8",
"[  c #F4B42DAE0343",
"{  c #F449297F095F",
"}  c #F5F532320384",
"|  c #F3F334DF0C62",
" . c #F2113B3B00E1",
".. c #F9A336360909",
"X. c #F34834DF11BC",
"o. c #F6F636E11A70",
"O. c #F7F72E2E1414",
"+. c #EB6B39BA2121",
"@. c #DEDE44440E0E",
"#. c #DBDB4E4E1494",
"$. c #D75755551394",
"%. c #C760497C25BF",
"&. c #C71C4AA0358B",
"*. c #C8C851512626",
"=. c #C44353D43939",
"-. c #D0D046462222",
";. c #DBDB5C5C3333",
":. c #ED4242420000",
">. c #EE6E4AF500D6",
",. c #E48E489E08B3",
"<. c #E42343C31252",
"1. c #ED42429812BD",
"2. c #EC6C44C51B1B",
"3. c #E8E8491618B2",
"4. c #E7E756560000",
"5. c #E9E957D814D5",
"6. c #F3F344C503C4",
"7. c #F5F547C80530",
"8. c #F5F548C91313",
"9. c #F3B352920081",
"0. c #FD635AC10B3E",
"q. c #F74C57E60623",
"w. c #F6A05A041313",
"e. c #ED6D4B4B23A4",
"r. c #EBAB559527A8",
"t. c #E58F5B05368C",
"y. c #F4F44F4F2222",
"u. c #FCFC5F5F3C3C",
"i. c #F67551D22A2A",
"p. c #EA3F67BD0732",
"a. c #E9A964E51717",
"s. c #F55B63FD046B",
"d. c #F53463A30A8B",
"f. c #F8F867670A8B",
"g. c #FC956680174A",
"h. c #F57573F40E0E",
"j. c #FF7F75351A1A",
"k. c #FC7C79791616",
"l. c #E9E960603E3E",
"z. c #FEFE69BF368C",
"x. c #FFFF6AEB36B7",
"c. c #FFFF747421CC",
"v. c #FFFF7C7C2424",
"b. c #FFFF78F92D2D",
"n. c #FFFF7CFD3535",
"m. c #C3C3575744C5",
"M. c #DBDB51514646",
"N. c #C2C270705A5A",
"B. c #DA2F656549F4",
"V. c #D85765E654FF",
"C. c #D6D671715E5E",
"Z. c #D9D973734D4D",
"A. c #C74779796565",
"S. c #C3437DFE6BEC",
"D. c #D9D97A246C16",
"F. c #E463717155D6",
"G. c #F37367E85555",
"H. c #FB7B70F14949",
"J. c #F54A6C6C52A8",
"K. c #E3E37B7B63E4",
"L. c #EEEE7C7C7171",
"P. c #ABAB86057777",
"I. c #F4F486861696",
"U. c #FFFF868628A9",
"Y. c #FF5496EC2626",
"T. c #FFFF96963232",
"R. c #FFFF85853535",
"E. c #FDFDA5A52E2E",
"W. c #FFFFA9FF39E4",
"Q. c #D655860677F8",
"!. c #D1D1870770F1",
"~. c #E76687077777",
"^. c #F8F887BA6902",
"/. c #FBBB8B4B7777",
"(. c #FFFF911175F6",
"). c #FDFD95957B7B",
"_. c #FC7C99997F7F",
"`. c #F1F193937979",
"'. c #FFFFA92943C4",
"]. c #FFFFB7F74909",
"[. c #FFFFC9C94949",
"{. c #FFFFC5C54545",
"}. c #FFFFC9C95050",
"|. c #FFFFD3D34C4C",
" X c #BABAAEAEA0A0",
".X c #C74693138B8B",
"XX c #DE5EA1A19313",
"oX c #DBDBA2A28E8E",
"OX c #DDDDB6B6B1B1",
"+X c #EA9497ED84DA",
"@X c #FAFA8E8E8181",
"#X c #F8A29A1A8731",
"$X c #FF31A4D78CF3",
"%X c #FCFCA4A48933",
"&X c #FD3CA2E293D3",
"*X c #FFFFABEB9313",
"=X c #F9B9A8289898",
"-X c #FDFDB0B09595",
";X c #FFFFB3B39CDC",
":X c #F3F3B1B19B9B",
">X c #E5E5AAAA9C9C",
",X c #E0E0B0B0A2A2",
"<X c #E3E3BFBFB3B3",
"1X c #FFFFAC2CA121",
"2X c #F7F7AEAEA8A8",
"3X c #FDA7B5B5A34D",
"4X c #FEBEBC3CA4E4",
"5X c #FF54BCE7AC81",
"6X c #F8A2B60BA54F",
"7X c #FDA7BCBCB45E",
"8X c #FB7BBABAB131",
"9X c #FFFFC35CADE0",
"0X c #FFFFC55EB5E8",
"qX c #FFFFC4AABBD5",
"wX c #FEFECB75B70C",
"eX c #FF7FCD19BE8B",
"rX c #F473C4C4B6B6",
"tX c #FDFDD1D1BBBB",
"yX c #E58FC6C6C3C3",
"uX c #FF6CCE85C47B",
"iX c #FFFFCDCDCA8A",
"pX c #FBFBC9C9C2C2",
"aX c #FFA2D3D3C467",
"sX c #FEFED48BCCBA",
"dX c #FFFFDADAC747",
"fX c #FF6CDB92CD3A",
"gX c #F6F6D4D4C8C8",
"hX c #FC7CD757D453",
"jX c #FEE0DCDCD510",
"kX c #FF7FDD9DDB7B",
"lX c #F6F6DBDBD0D0",
"zX c #E7E7D4D4D0D0",
"xX c #FEFEE1E1CF24",
"cX c #FE53E338D5AA",
"vX c #FF3BE482DBAA",
"bX c #FFA2EBD4DD51",
"nX c #F84DE791DB85",
"mX c #FFFFF3F3DEDE",
"MX c #F5F5EBEBE767",
"NX c #FF23E5E5E39A",
"BX c #FF49EC78E547",
"VX c #FF57EE03EB9D",
"CX c #F3F3E3E3E4E4",
"ZX c #FFFFEB95F29C",
"AX c #FFFFEEEEFBFB",
"SX c #FE28F41EE690",
"DX c #FF27F3ABED67",
"FX c #FEA8FC18EF27",
"GX c #F5F5F574ECAC",
"HX c #F5F5F4F4F348",
"JX c #F65CFBFBF65C",
"KX c #F777FDFDFB9B",
"LX c #FEF3F5D3F3ED",
"PX c #FEBEF655FC3B",
"IX c #FDFDFC4AF664",
"UX c #FEE2FF14FE7D",
/* pixels */
"UXIXIXLXIXIXIXUXUXUXUXUXUXKXIXUXUXUXUXUXKXKXUXKXUXUXUXUXIXIXUXUXKXUXUXUXUXUXUXUXUXUXUXUXUXUXUXKXUXUX",
"UXLXVXBXLXIXUXHXUXUXUXUXUXUXUXIXUXUXUXUXUXUXKXUXUXUXUXUXUXUXUXUXUXUXUXUXUXUXUXUXUXUXUXUXUXUXUXUXUXUX",
"PXMXyXkXnXVXIXKXUXUXUXUXUXUXUXUXUXUXUXUXUXIXIXUXUXUXUXUXUXUXUXUXUXUXUXUXUXUXUXUXUXUXUXUXUXUXUXUXUXUX",
"CXyXO .XsXlXDXIXIXUXUXUXUXUXUXIXUXUXKXUXUXIXUXUXUXUXUXUXUXUXKXUXUXUXUXUXUXUXUXUXUXUXUXUXUXUXUXUXUXUX",
"VXkXu O Q.pXhXVXPXIXUXUXUXUXUXUXKXIXUXIXUXIXIXIXUXUXUXUXUXUXUXUXUXUXUXUXUXUXUXUXUXUXUXUXUXUXUXUXUXUX",
"MXlX8X* O z iXVXLXPXUXUXUXKXUXUXUXIXIXUXUXIXUXUXUXUXUXUXIXUXUXUXUXUXUXUXUXUXUXUXUXUXKXUXUXUXUXUXUXUX",
"IXDXsX8Xf o OXCXLXUXUXUXUXUXUXUXUXUXUXUXUXUXUXUXUXUXUXKXKXKXUXUXUXUXUXUXUXUXUXUXKXUXUXUXUXUXUXUXUXUX",
"JXGXBXcXsX.XyXZXPXKXUXKXUXUXUXKXKXIXUXUXUXUXUXUXUXKXUXUXIXUXIXUXUXUXUXUXUXUXUXUXUXUXUXUXUXUXUXUXUXUX",
"UXUXPXVXBXBXSXGXIXUXKXKXUXUXKXUXIXKXUXUXUXUXUXUXUXUXUXUXKXUXIXIXIXUXUXUXUXUXUXUXUXUXUXUXUXUXUXUXUXUX",
"KXUXUXLXLXIXIXIXLXPXUXUXUXUXUXUXUXUXUXUXUXUXIXUXUXUXIXKXIXIXKXUXKXKXUXUXUXUXUXUXUXUXUXUXUXUXUXUXUXUX",
"UXUXUXUXIXUXUXIXUXPXUXUXHXUXPXUXUXUXUXUXUXIXIXIXUXIXIXIXFXIXIXIXIXIXUXUXUXUXUXUXUXUXUXUXUXUXUXUXUXUX",
"IXKXUXUXUXUXKXIXUXPXUXZXUXUXUXUXUXUXUXUXUXUXIXIXIXIXLXIXIXLXLXLXLXIXIXIXUXUXKXUXUXUXUXUXUXUXUXUXUXUX",
"IXUXUXUXUXUXIXUXHXCXzXGXFXHXUXPXUXUXUXUXUXKXUXIXLXIXVXkXjXlXvXvXBXSXLXUXUXUXUXUXUXUXUXUXUXUXUXUXUXUX",
"IXUXUXUXUXUXIXKXZXnXh rXbXbXDXZXAXPXPXPXUXKXKXKXUXNXjXaXwX6X6XXXpXvXDXIXUXUXUXUXUXUXUXUXUXUXUXUXUXUX",
"UXUXUXUXUXUXUXPXIXBXy g :X0XsXkXvXDXLXIXKXJXIXIXVXkXrXz & = i . XXhXSXIXKXUXUXUXUXUXUXUXUXUXUXUXUXUX",
"UXUXUXUXUXUXUXPXLXBXXX  * Q.=X5XqXfXvXBXFXGXFXFXbXeX%Xi a H.r.5 A.uXVXZXUXUXUXUXUXUXUXUXUXUXUXUXUXUX",
"UXUXUXUXUXUXUXUXGXBXfXS.X % % t V.@XqXfXmXFXFXFXxX9XB.w r.x.3.w x tXmXGXIXUXUXUXUXKXUXUXUXUXUXUXUXUX",
"UXUXUXUXUXUXUXUXIXBXvXaXc r q 1 q 3 m.;XtXbXFXBXxX-X9 K <.<.' 9 ~.tXmXIXKXUXUXUXUXUXUXIXUXUXUXUXIXUX",
"UXUXUXUXUXUXUXIXUXIXBXjXiX+Xs U V V 0 s 2XkXVXVXeX+Xw K K 3.P ; #XtXSXIXIXUXUXUXUXUXIXIXPXUXUXUXUXIX",
"UXUXUXUXUXIXUXUXUXLXPXVXkXpX&Xs -.~ ] > m.7XhXVXaX`.w <.3.<.P 7 &XtXBXIXKXUXUXUXUXIXIXIXUXUXUXUXIXUX",
"UXUXUXUXUXIXUXUXPXKXKXIXDXcXaXD.> +.! ~ 4 &XiXkXiX&X2 r.x.,.L 2 %XtXBXIXIXPXUXUXUXIXIXUXUXUXPXUXUXUX",
"UXUXUXUXUXIXUXUXUXUXUXIXIXDXvXeX&.H ! ! b V.7XsXiX6Xa S x.i.' : C.wXvXSXUXIXUXIXIXUXKXKXUXUXUXUXUXUX",
"UXUXUXUXUXUXUXUXKXUXUXKXZXIXVXiX#X0 o.O.D > @X7XuX5X).5 -.x.<.Z a -XdXvXIXUXUXUXUXUXKXKXUXIXUXUXUXUX",
"UXUXUXUXUXUXUXUXKXKXUXIXLXIXVXjX&X2 P D H D # /.5X3X*X^.%.8 8.L 2 ^.9XcXVXIXIXIXIXLXIXHXZXZXIXIXUXUX",
"UXKXUXUXUXUXUXKXKXKXUXUXIXLXZXsX= %.t.V B Z Z ; B.$X*X*X_.J.m 2.P w _.5XkXVXLXUXLXDXMX XnXcXBXDXLXIX",
"UXUXUXUXUXUXIXUXUXKXUXUXIXPXVXsX= 5 t.H.u.M L G 0 S ^._.(.H.M H ' L e `.qXsXNXVXZXSXbXP.+ aXfXBXLXPX",
"UXUXUXUXUXUXUXIXUXUXUXUXKXIXZXjXx 4 9 B H F o.o.` D , , : , v ! { E P 7 V.*XeXvXBXvXaXoXX * eXcXDXIX",
"UXUXPXUXIXIXIXUXUXUXUXKXKXUXLXvX9X= 4 U D ] ! ` o.o.` D D n T Q { O./ L 8 %.`.9XsXsXtXN.d d S.cXSXLX",
"UXUXUXUXUXIXUXIXPXUXUXUXUXIXLXVXsXqXk % 1 b B D ~ ~ W X./ ^ Q { [ [ .. ._ #.*.Z.-X5X;XC.a =.c rXVXIX",
"UXUXUXUXIXUXUXUXUXUXUXUXUXUXIXLXVXkXpX1XL.G.G.I D v n X.8.8.6.} (  . .7.7.8.a.$.*.).$XK.a r c eXBXAX",
"UXKXUXKXUXUXUXUXUXUXUXUXUXUXPXIXPXVXVXhXaXqX9X(.0 i.n W z.n.n.c.f.9.6.6.q.0.d.a.#.w ^.L.Z.. !.gXVXZX",
"UXKXKXUXUXUXUXUXUXUXUXUXUXUXUXUXUXIXPXPXVX<X4X%Xe D W | 1.b.b.j.j.f.0.0.9.d.h.U.,.A e (._.y ,XvXDXIX",
"UXUXUXUXUXUXUXUXUXUXUXUXUXUXUXUXUXUXUXPXZXS.:X-XS G O.{ .. .>.>.>.9.0.d.p.p.I.T.a.J 7 =.$X5XgXVXLXIX",
"UXUXUXUXUXUXUXUXUXUXUXUXUXUXUXUXUXIXUXLXCX@ 9XF.B ` R ..}  .9.>.9.>.>.q.k.Y.E.W.a.J : ; #XpXvXVXPXIX",
"UXUXUXUXUXUXUXUXUXUXUXUXUXUXUXUXUXUXUXDXcXf p S E Q R } 7.w.f.q.9.9.q.4.T.W.[.].a.K b q D.pXvXLXUXUX",
"UXUXUXUXUXUXUXUXUXUXUXUXUXUXUXUXUXIXIXSXnXz 5 P E [ [  .0.c.j.f.q.q.p.p.E.[.[.].a.N < Y j qXNXIXPXUX",
"UXUXUXUXUXUXUXUXUXUXUXUXUXUXUXUXUXUXUXFXmXtXV.; E Q [ 7.g.R.j.d.f.s.p.I.{.|.[.{.a.M b I p dXbXIXIXUX",
"UXUXUXUXUXUXUXUXUXUXUXUXUXUXUXUXKXKXPXIXbXjX1X3 P W |  .w.v.j.d.s.s.h.Y.[.[.[.'.$.N K ; N.dXbXIXKXUX",
"UXUXUXUXUXUXUXUXUXUXUXUXUXUXUXUXUXUXUXPXIXVXiXD.1 +.W  .6.g.c.g.s.d.d.U.W.].W.R.@.m > # +XsXBXIXIXUX",
"UXUXUXUXUXUXUXUXUXUXUXUXUXUXUXUXUXKXUXAXAXZXkXqXV.; P ) ^ :.g.g.0.>.g.d.p.a.5.#.N - $ j qXkXLXUXUXIX",
"UXUXUXUXUXUXUXUXUXUXUXUXUXUXUXUXUXUXUXUXPXAXVXhX7XC.2 K ' (  .^ Q ( :.:.>.w.5.Z 2 # j 2XhXMXIXUXKXIX",
"UXUXUXUXUXUXUXUXUXUXUXUXUXUXUXUXIXIXKXUXUXPXPXNXjX0X#X*.B 2.' F Q W F Q 6.2.e.e V.&XpXkXNXIXJXKXUXUX",
"UXUXUXUXUXUXUXUXUXUXUXUXUXUXUXUXIXIXKXUXUXUXUXFXSXcXtX;XB.q V D ~ n W  ._ r.#.% =XuXvXVXIXIXJXUXUXUX",
"UXUXUXUXUXUXUXUXUXUXUXUXUXUXUXUXUXIXIXUXKXKXIXIXFXSXbXaX4X~.q C C b G L <.8 % ;XcXbXVXUXUXUXKXKXKXUX",
"UXUXUXUXUXUXUXUXUXUXUXUXUXUXUXUXIXUXUXUXUXKXIXIXJXIXIXSXvXeX1X/.M.G.H.r.;.^.4XmXSXIXUXPXPXPXUXPXPXUX"
};
