/* XPM */
static char *fire_XPM[] = {
/* columns rows colors chars-per-pixel */
"50 45 256 2",
"   c #76761A1A0303",
".  c #6E6E21211717",
"X  c #717130302A2A",
"o  c #7F7F42423D3D",
"O  c #747440402A2A",
"+  c #89891B71045A",
"@  c #9B9B11110485",
"#  c #9C9C2A2A0B8C",
"$  c #96562AAB1959",
"%  c #979737B81E9E",
"&  c #898921210606",
"*  c #98983B3B3333",
"=  c #A0A008080000",
"-  c #AC2C1B9C0182",
";  c #A8A81E1E1090",
":  c #B5B5169700C1",
">  c #B5471B890194",
",  c #BA0F1A4506DC",
"<  c #AA6126B90A9D",
"1  c #AC5626D1176D",
"2  c #BE7E29AA0B0B",
"3  c #B95926460788",
"4  c #B8B827271454",
"5  c #B0B032320A0A",
"6  c #BBBB32DD1167",
"7  c #BA8738051980",
"8  c #A52437B821A2",
"9  c #BC3C37F826E7",
"0  c #9F9F4DCE38B9",
"q  c #91914E4E3E3E",
"w  c #A1A14F4F3A3A",
"e  c #B33353533C3C",
"r  c #BA3A43C431B2",
"t  c #909065655E5E",
"y  c #A1A14F4F4343",
"u  c #AFAF51D248C9",
"i  c #BA3A67674C0C",
"p  c #BCBC67675252",
"a  c #ABAB7F7F7E7E",
"s  c #CACA0E8F0000",
"d  c #C2C21B5B0141",
"f  c #CCCC14140000",
"g  c #C7F21A450585",
"h  c #D4D411920000",
"j  c #DBDB1C9C0242",
"k  c #D4291BC60359",
"l  c #C5442AAB0202",
"z  c #CF24297F0909",
"x  c #C9C924F204D2",
"c  c #C4C42A801414",
"v  c #C84834740A4A",
"b  c #C91E33331818",
"n  c #D507248B0168",
"m  c #DC3123790B61",
"M  c #DBDB2A6A02C3",
"N  c #DB742BF90C73",
"B  c #D5AA26FC07DD",
"V  c #DB3036360AB5",
"C  c #D50735CF187F",
"Z  c #D3D322221212",
"A  c #CCCC3DBE22A3",
"S  c #D353373721A2",
"D  c #EBEB1E1E0000",
"F  c #E66617170182",
"G  c #F5F51F1F0000",
"H  c #E4E425250B0B",
"J  c #E36329290303",
"K  c #ED4224FA0404",
"L  c #ED972B000C37",
"P  c #E855294E07BF",
"I  c #E0E02B2B1010",
"U  c #ECB932990269",
"Y  c #EAB732650C73",
"T  c #ED973B910359",
"R  c #E91B370409D7",
"E  c #E53A358B1268",
"W  c #EAEA3BE61111",
"Q  c #E91B34671548",
"!  c #F3F323F90283",
"~  c #F3C82BAC032E",
"^  c #F4732A6A0BCC",
"/  c #FA592C4C0384",
"(  c #FB50287E09B4",
")  c #F5742CAD1313",
"_  c #F3F334DF03AE",
"`  c #F74C34340CB7",
"'  c #F4943C1C00C1",
"]  c #FAA433DE0359",
"[  c #FC3B33730ACB",
"{  c #FA4F3B910258",
"}  c #F7F73ABB0B0B",
"|  c #F4F435751515",
" . c #F3B33B3B1212",
".. c #FF7F31B21192",
"X. c #F8F83E3E1818",
"o. c #CACA44C51D9E",
"O. c #D85845C61555",
"+. c #DBDB53531515",
"@. c #C56F44EF2B2B",
"#. c #CECE4F4F2F2F",
"$. c #C71C48F3348A",
"%. c #D959575736B7",
"&. c #D0D04F4F2BAC",
"*. c #DCDC60603C3C",
"=. c #EDED43430B8C",
"-. c #EBEB48C90000",
";. c #E9E94848066D",
":. c #E83D58AE01AC",
">. c #F42644110000",
",. c #F4D44BEC0161",
"<. c #F94E4C4C0157",
"1. c #F82245F0098A",
"2. c #F8F84848183D",
"3. c #F6765BDC0000",
"4. c #FCA65CB204AF",
"5. c #FD275B050A0A",
"6. c #F7F754D407DD",
"7. c #FBA55DB313BE",
"8. c #F8785A5A199A",
"9. c #ED6D51D21515",
"0. c #F9F948F3257B",
"q. c #F6F6565625A6",
"w. c #E5E5595932B3",
"e. c #E9E969290444",
"r. c #EDED61611414",
"t. c #EEEE70700000",
"y. c #F59563E402C3",
"u. c #F59F62620909",
"i. c #FC5162B80A0A",
"p. c #FDA76BC10DB8",
"a. c #F7A169BF055B",
"s. c #FD6367671649",
"d. c #F6A076CC08B3",
"f. c #FFFF76F71A9A",
"g. c #FFFF79231717",
"h. c #FFFF78781717",
"j. c #FFFF69EA37B8",
"k. c #FFFF79FA26A7",
"l. c #FFFF707035B6",
"z. c #F1F1666634B5",
"x. c #C847585849CA",
"c. c #DBDB5F5F4343",
"v. c #DADA5F5F5050",
"b. c #CA4A6A6A5B5B",
"n. c #DADA676747F2",
"m. c #DBDB656550A6",
"M. c #C9496E6E55D6",
"N. c #C6C67D7D64E5",
"B. c #DDDD7C7C6CC2",
"V. c #D7D776A963FD",
"C. c #E6E667BD4DA3",
"Z. c #E8E868A85858",
"A. c #FFFF6F6F4747",
"S. c #FD7D74745BDC",
"D. c #EDED7D7D7272",
"F. c #E5E57F7F6666",
"G. c #B5B58B8B7B7B",
"H. c #FBFB86861798",
"J. c #F8788D8D1010",
"K. c #FFFF84842C2C",
"L. c #FFFF8C0C24A5",
"P. c #FFFF82822424",
"I. c #FFFF8A8A3D3D",
"U. c #FF549B45277D",
"Y. c #FCFCAA2A2929",
"T. c #FFFFAD2D35B6",
"R. c #FFFFADAD3E3E",
"E. c #FFFFB6B63ABB",
"W. c #C94984847777",
"Q. c #DDDD81817272",
"!. c #D8D885856767",
"~. c #EDED82026BEC",
"^. c #F49E89DF6D17",
"/. c #F8788C4C7676",
"(. c #FFFF96967DFE",
"). c #F92B98657B48",
"_. c #ED6D90107B7B",
"`. c #FFFFBE3E4A4A",
"'. c #FFFFB6B64B4B",
"]. c #FFFFC4C43F3F",
"[. c #FFFFCD8D49CA",
"{. c #FFFFC5444848",
"}. c #FFFFD3D34A4A",
"|. c #BBBBA9A99D9D",
" X c #D9D999998D0D",
".X c #DDDDA1A19696",
"XX c #DFDFAFAFA5A5",
"oX c #DADAB4B4A9A9",
"OX c #E8929A9A8A34",
"+X c #F1F18C8C8080",
"@X c #F8C597978451",
"#X c #E8E88C8C8181",
"$X c #FC51A2A28BE1",
"%X c #FAFAA4A48646",
"&X c #FDA7A2A29494",
"*X c #FCFCA6A69E9E",
"=X c #FCFCAB0093E9",
"-X c #FFFFACAC9BF1",
";X c #F6F6A3A39393",
":X c #FDB4B3D89D9D",
">X c #FFFFB2B29595",
",X c #ECECA8A89595",
"<X c #EB95BA0FAC01",
"1X c #F979AC2CA7A7",
"2X c #FD2FB380A3D6",
"3X c #FF7FBDBDADAD",
"4X c #FFFFB90EA9A9",
"5X c #FBFBBD67B45E",
"6X c #E5E5C646BCBC",
"7X c #FFB6C5A0B4FD",
"8X c #FFFFC545BD9D",
"9X c #FF7FCD15BC04",
"0X c #FB7BCB4BB838",
"qX c #F7F7D2D2BE3E",
"wX c #F9F9D5D5BFBF",
"eX c #FAFAC3C3AFAF",
"rX c #E9E9C848C544",
"tX c #FF1ECECEC3A3",
"yX c #FBFBCBCBC9C9",
"uX c #FE17D4A1C477",
"iX c #FF43D44BCC21",
"pX c #FFFFDCDCC747",
"aX c #FEFEDAC0CD33",
"sX c #F5F5D5D5CBCB",
"dX c #F6A0DD87D328",
"fX c #FFFFD6D6D453",
"gX c #FF3EDB5BD413",
"hX c #FFA9DDA4DAF7",
"jX c #E8E8D3D3CECE",
"kX c #FC7CDCDCE1E1",
"lX c #FFFFE0E0CCCC",
"zX c #F59FE439DCDC",
"xX c #FDA7E41CD5B8",
"cX c #FEAFE432DC8D",
"vX c #FEFEEABFDD07",
"bX c #F5F5E892DBDB",
"nX c #F635E5E5E5A5",
"mX c #F64BED42E3E3",
"MX c #FF94E666E30D",
"NX c #FE7EEB77E4B1",
"BX c #FE6FEE8AEC24",
"VX c #F473E9E9EAAA",
"CX c #FDFDEEEEF0F0",
"ZX c #FFFFEBEBF9F9",
"AX c #F635F473ED6C",
"SX c #FEFEF1F1E767",
"DX c #FE12F38CED53",
"FX c #F9F9FA4FEEEE",
"GX c #F5F5F635F3B3",
"HX c #F5F5FCD7F6D1",
"JX c #F7B7FE3DFD7D",
"KX c #FE09F55AF45F",
"LX c #FE53F5E4FB0B",
"PX c #FD70FC1EF631",
"IX c #FF3CFF3DFEE7",
"UX c #F777F6F6FB7B",
/* pixels */
"IXIXIXIXIXIXIXIXIXIXIXIXIXIXIXIXIXIXIXIXIXIXIXIXIXIXIXIXPXPXIXIXIXIXIXIXIXIXIXIXFXPXPXIXIXLXIXLXIXIX",
"IXIXIXIXIXIXIXIXIXIXIXIXIXIXIXIXIXIXIXIXIXIXIXIXIXIXIXIXIXIXIXIXIXIXIXIXIXIXIXIXIXIXGXIXIXIXBXDXKXIX",
"IXIXIXIXIXIXIXIXIXIXIXIXIXIXIXIXIXIXIXIXIXIXIXIXIXIXIXIXJXIXIXIXIXIXIXIXIXIXIXIXIXIXIXUXVXcXhX6XnXKX",
"IXIXIXIXIXIXIXIXIXIXIXIXIXIXIXIXIXJXIXIXIXIXIXIXIXIXIXIXIXIXIXIXIXIXIXIXIXIXIXIXIXIXIXDXdXgXW.X rXVX",
"IXIXIXIXIXIXIXIXIXIXIXIXIXIXIXIXIXIXIXIXIXIXIXIXIXIXIXIXIXIXIXIXIXPXIXIXIXJXIXIXLXIXmXdX9XQ.$ * hXCX",
"IXIXIXIXIXIXIXIXIXIXIXIXIXIXIXIXIXIXIXIXIXIXIXIXIXIXIXIXIXIXIXPXJXIXIXIXIXIXIXIXIXLXSXsXu $ $ 4XhXAX",
"IXIXIXIXIXIXIXIXIXIXIXIXIXIXIXIXIXIXIXIXIXIXIXIXIXIXIXIXIXIXIXPXJXIXIXIXIXIXIXJXLXLXMXoX. y eXsXVXIX",
"IXIXIXIXIXIXIXIXIXIXIXIXIXIXIXIXIXIXIXIXIXIXIXIXIXIXIXIXIXIXIXIXIXIXIXIXIXIXIXIXLXIXKX6X.XsXdXbXAXLX",
"IXIXIXIXIXIXIXIXIXIXIXIXIXIXIXIXIXIXIXPXIXIXIXIXIXIXIXIXIXIXIXIXIXIXIXIXUXIXIXIXIXPXSXBXBXMXDXUXIXIX",
"IXIXIXIXIXIXIXIXIXIXIXIXIXIXIXIXIXPXPXHXPXPXJXIXIXIXIXIXIXIXIXIXIXIXIXJXIXIXJXIXLXIXPXPXIXGXLXIXIXIX",
"IXIXIXIXIXIXIXIXIXIXIXIXIXIXIXIXPXPXHXHXHXHXJXPXIXIXPXPXIXJXIXIXIXIXIXIXIXHXIXPXIXIXPXIXIXPXIXIXIXIX",
"IXIXIXIXIXIXIXIXIXIXIXIXIXIXIXIXIXPXHXFXFXPXIXKXLXIXPXPXPXIXIXIXIXIXIXLXIXJXPXIXPXIXIXPXIXIXIXIXIXIX",
"IXIXIXIXIXIXIXIXIXIXIXIXIXIXIXLXGXnXMXvXxXdXbXDXKXIXIXIXIXIXIXIXIXIXLXIXPXPXDXjXnXUXIXIXLXPXIXIXIXIX",
"IXIXIXIXIXIXIXIXIXIXIXIXIXIXIXKXkXfX.X2X:X7XaXhXBXPXPXPXPXPXJXIXIXLXZXLXMXvX<Xt nXGXJXIXIXIXIXIXIXIX",
"IXIXIXIXIXIXIXIXIXIXIXIXIXIXUXDXaXOX+ 7 5 # i 0XhXGXIXPXPXIXJXGXSXzXMXyX9X:Xw q NXUXLXUXIXIXIXIXIXIX",
"IXIXIXIXIXIXIXIXIXIXIXIXIXIXUXSXwXN.< q.j.O.6 $XuXNXPXJXKXPXDXMXaXtX5X*XB.%   ,XvXUXJXIXIXIXIXIXIXIX",
"IXIXIXIXIXIXIXIXIXIXIXIXIXJXIXSXuXi l 0.l.q.l n.7XxXPXPXFXvXaX0X+Xm.9 ; ; + N.pXvXAXIXIXIXIXIXIXIXIX",
"IXIXIXIXIXIXIXPXJXIXIXIXIXIXUXSXwX!.3 W =.T W 2 >XlXNXPXSXuX4Xx.4 g , c 1 b.uXcXAXPXIXIXIXIXIXJXIXIX",
"PXIXJXIXIXIXIXIXPXIXIXIXIXHXPXSXqX%X: | =.T M v _.qXSXSXhX2X@.x m I S 9 #XfXhXBXKXIXIXIXIXIXIXIXIXIX",
"PXIXJXIXIXIXIXIXIXJXPXIXJXIXPXSXuX$X> I =.1. .2 _.lXSXbX8Xx., L L Q @.&XfXkXCXIXIXIXJXIXIXIXIXIXIXIX",
"IXIXIXIXIXIXIXIXIXIXIXIXPXPXPXvX0X%X> R =.j.0.3 ;XyXkXyX&X4 H ( | > B.aXhXKXLXIXLXIXIXIXIXIXIXIXIXIX",
"IXIXIXIXIXIXPXIXIXIXIXJXJXPXDXvX0XF., R 7.l.v 9 4XfXfX5XZ.g ( G N #.yXMXPXPXIXIXIXIXIXPXIXIXIXIXIXIX",
"IXIXIXIXUXJXPXUXIXIXIXIXIXPXBXpX:Xr n 2.j.v 5 ).8XyXtX+X, H ^ ) 2 @XfXBXPXPXIXIXIXIXIXIXIXIXIXIXIXIX",
"LXIXIXLXKXDXDXKXKXPXIXIXIXDXxX9X^.< W 2.x o./.:X3X7X_.< Z P J C < &XhXBXPXPXIXIXIXJXJXIXIXIXIXIXIXIX",
"LXIXKXDXzXvX|.zXDXLXIXLXCXhX7X@X3 V X.x z.%X-X:X-XC.> z M x z w.b 8 gXKXKXIXIXIXIXIXPXIXIXIXIXIXIXIX",
"LXKXNXdX9XO G.vXBXKXCXMXfXtX/.6 W  .I d S.(.%X/.b , N Y n j.A.w.6 # gXDXLXUXIXJXJXIXJXIXIXIXIXIXIXIX",
"IXKXxX9X% + OXuXMXBXMXuX-Xn.3 E Y K L h , > 3 d m ^ [ ] j N z 2 < M.hXKXIXLXIXIXIXIXPXPXIXIXIXIXIXIX",
"KXDXaXN.&.7 N.tXaXaX0X_.@.l R ~ / / ! F j m j ) ..../ ^ | N C 4 8 3XvXKXIXIXIXIXIXIXIXPXIXIXIXIXIXIX",
"IXSXqXi %.C V.2XeX>X*.+.=._ _ ] ] / ! K ~ R ` L D L H k x , 1 x.8XgXBXUXIXIXIXIXIXIXIXIXIXIXIXJXIXIX",
"KXnXyXp 4 A V.=X).&.+.7.<.1.1.{ _ U _ >.1.2.` h s k C S.Z.D.1XiXhXBXPXPXIXIXIXIXIXIXIXIXIXIXPXIXIXIX",
"PXMXuXN.+ C.~.^.v +.r.y.5.<.>.>.-.a.f.K.I.l.L h 0.9 (.0XtXyXhXBXBXLXPXPXIXIXJXIXIXIXIXIXIXIXIXIXIXIX",
"IXKXzX<Xw (./.7 z =.H.d.a.4.5.5.p.g.g.K.k.=.^ ) j 9 =X<X6XKXLXIXIXIXIXIXPXIXIXIXIXIXIXIXIXIXIXIXIXIX",
"IXKXBXsX5X;X$.3 V 7.Y.J.t.y.i.5.,.,.,.,.T _ / ( D b :X<XG.LXLXUXIXIXIXIXIXIXIXIXIXIXIXIXIXIXIXIXIXIX",
"IXKXKXhXtXOX1 , M 7.T.Y.J.d.u.-.<.<.,.,.' ] / G ) Z Z.3Xo MXIXIXIXIXIXIXIXIXIXIXIXIXIXIXIXIXIXIXIXIX",
"IXIXKXMX9XV.3 d R 9.{.{.E.U.:.3.<.<.4.i.5.>._ G D J V %.0 aXDXPXIXIXIXIXIXIXIXIXIXIXIXIXIXIXIXIXIXIX",
"IXIXIXMX9Xe S s M r.`.[.{.Y.e.3.4.4.p.f.f.5.{ ~ ~ ~ I 6 i vXFXIXIXIXIXIXIXIXIXIXIXIXIXIXIXIXIXIXIXIX",
"JXLXIXMXiXe S k n r.{.[.}.{.J.t.y.i.y.d.L.s.1./ ~ L : m.aXBXPXIXIXIXIXIXIXIXIXIXIXIXIXIXIXIXIXIXIXIX",
"IXJXIXMXiXb.- N n +.'.[.}.[.U.t.y.u.y.g.P.4.{ / ^ Q < *XxXFXIXJXIXIXIXIXIXIXIXIXIXIXIXIXIXIXIXIXIXIX",
"IXPXPXBXaXOX@ s k ;.K.R.'.R.L.a.3.u.p.k.s.>.] [ ) : B.yXMXLXIXLXIXIXIXIXIXIXIXIXIXIXIXIXIXIXIXIXIXIX",
"IXPXIXKXcX8Xu = : M :.:.e.e.u.i.-.6.s.s.>.U ` Y : v.tXhXBXIXIXIXIXIXIXIXIXIXIXIXIXIXIXIXIXIXIXIXIXIX",
"JXJXIXUXVXdX1Xu @ : V ;.5.6.' } L P T T ~ } V < B.5XkXZXZXIXIXIXIXIXIXIXIXIXIXIXIXIXIXIXIXIXIXIXIXIX",
"IXJXIXIXUXVXkXtX*XC.b 2.1.{ ! D ) F J ` X.z @.@X8XMXkXLXIXIXJXHXIXIXIXIXIXIXIXIXIXIXIXIXIXIXIXIXIXIX",
"IXIXIXKXIXHXKXvXtX-X# O.2.{ ] ! F D j k c n.4XuXbXSXKXIXIXIXJXIXIXIXIXIXIXIXIXIXIXIXIXIXIXIXIXIXIXIX",
"JXIXIXPXIXHXHXKXNXxX-X# l W W n k Z c 9 ~.eXaXbXAXPXPXPXIXIXIXIXIXIXIXIXIXIXIXIXIXIXIXIXIXIXIXIXIXIX",
"IXIXIXIXPXHXUXIXIXPXFXeX^.*.%.C.Z.x./.4XtXvXKXIXIXHXPXPXIXIXIXPXIXIXIXIXIXIXIXIXIXIXIXIXIXIXIXIXIXIX"
};
